<?xml version="1.0" standalone="no"?>
<!DOCTYPE svg PUBLIC "-//W3C//DTD SVG 1.1//EN" "http://www.w3.org/Graphics/SVG/1.1/DTD/svg11.dtd">
<!--Generator: Xara Designer (www.xara.com), SVG filter version: 6.6.0.1-->
<svg fill="none" fill-rule="evenodd" stroke="black" stroke-width="0.501" stroke-linejoin="bevel" stroke-miterlimit="10" font-family="Times New Roman" font-size="16" style="font-variant-ligatures:none" xmlns:xlink="http://www.w3.org/1999/xlink" xmlns="http://www.w3.org/2000/svg" version="1.1" overflow="visible" width="82.836pt" height="26.584pt" viewBox="264.191 -305.542 82.836 26.584">
 <defs>
	</defs>
 <g id="Layer 1" transform="scale(1 -1)">
  <g id="Group" fill-rule="nonzero" stroke="none" stroke-width="0.542" fill="#001a67">
   <g id="Group_1">
    <path d="M 277.087,291.054 L 272.152,291.054 L 270.039,296.595 L 268.638,296.595 L 268.638,291.054 L 264.191,291.054 L 264.191,305.542 L 271.759,305.542 C 273.429,305.542 274.725,305.151 275.649,304.369 C 276.572,303.588 277.034,302.556 277.034,301.275 C 277.034,300.44 276.864,299.703 276.525,299.062 C 276.185,298.422 275.498,297.858 274.466,297.369 L 277.087,291.054 Z M 268.638,299.694 L 270.538,299.694 C 271.097,299.694 271.547,299.811 271.886,300.044 C 272.226,300.278 272.396,300.621 272.396,301.074 C 272.396,302.001 271.826,302.464 270.687,302.464 L 268.638,302.464 L 268.638,299.694 Z" marker-start="none" marker-end="none"/>
    <path d="M 292.085,291.054 L 287.15,291.054 L 285.037,296.595 L 283.636,296.595 L 283.636,291.054 L 279.189,291.054 L 279.189,305.542 L 286.757,305.542 C 288.427,305.542 289.723,305.151 290.647,304.369 C 291.57,303.588 292.032,302.556 292.032,301.275 C 292.032,300.44 291.862,299.703 291.523,299.062 C 291.183,298.422 290.496,297.858 289.464,297.369 L 292.085,291.054 Z M 283.636,299.694 L 285.536,299.694 C 286.095,299.694 286.545,299.811 286.884,300.044 C 287.224,300.278 287.394,300.621 287.394,301.074 C 287.394,302.001 286.824,302.464 285.685,302.464 L 283.636,302.464 L 283.636,299.694 Z" marker-start="none" marker-end="none"/>
    <path d="M 294.187,291.054 L 294.187,305.542 L 299.791,305.542 C 302.226,305.542 304.048,304.82 305.258,303.377 C 306.467,301.933 307.072,300.263 307.072,298.367 C 307.072,296.202 306.423,294.442 305.125,293.086 C 303.827,291.731 302.141,291.054 300.067,291.054 L 294.187,291.054 Z M 298.634,294.387 L 299.791,294.387 C 300.527,294.387 301.148,294.744 301.654,295.459 C 302.16,296.173 302.413,297.147 302.413,298.378 C 302.413,299.432 302.188,300.341 301.739,301.106 C 301.29,301.87 300.641,302.252 299.791,302.252 L 298.634,302.252 L 298.634,294.387 Z" marker-start="none" marker-end="none"/>
    <path d="M 315.469,301.849 L 315.469,299.099 L 313.314,299.099 L 313.314,295.119 C 313.314,294.574 313.417,294.251 313.622,294.148 C 313.827,294.045 314.04,293.994 314.259,293.994 C 314.599,293.994 315.002,294.054 315.469,294.175 L 315.469,291.16 C 314.634,290.997 313.813,290.916 313.007,290.916 C 311.705,290.916 310.748,291.195 310.136,291.754 C 309.523,292.313 309.218,293.205 309.218,294.429 L 309.228,295.692 L 309.228,299.099 L 307.615,299.099 L 307.615,301.849 L 309.228,301.849 L 309.292,305.362 L 313.314,305.426 L 313.314,301.849 L 315.469,301.849 Z" marker-start="none" marker-end="none"/>
    <path d="M 322.157,290.831 C 320.367,290.831 318.944,291.389 317.89,292.503 C 316.835,293.618 316.308,294.925 316.308,296.425 C 316.308,298.038 316.858,299.383 317.959,300.458 C 319.059,301.534 320.49,302.071 322.252,302.071 C 324.028,302.071 325.456,301.541 326.535,300.479 C 327.614,299.418 328.154,298.088 328.153,296.488 C 328.154,294.875 327.607,293.529 326.514,292.45 C 325.42,291.371 323.968,290.831 322.157,290.831 Z M 322.22,293.4 C 322.878,293.4 323.28,293.741 323.425,294.424 C 323.57,295.107 323.643,295.82 323.643,296.563 C 323.643,297.575 323.54,298.303 323.335,298.749 C 323.129,299.195 322.762,299.418 322.231,299.418 C 321.743,299.418 321.385,299.188 321.159,298.728 C 320.932,298.268 320.819,297.511 320.819,296.457 C 320.819,295.218 320.936,294.399 321.17,293.999 C 321.403,293.6 321.753,293.4 322.22,293.4 Z" marker-start="none" marker-end="none"/>
    <path d="M 335.075,290.831 C 333.285,290.831 331.862,291.389 330.808,292.503 C 329.753,293.618 329.226,294.925 329.226,296.425 C 329.226,298.038 329.776,299.383 330.877,300.458 C 331.977,301.534 333.408,302.071 335.17,302.071 C 336.946,302.071 338.374,301.541 339.453,300.479 C 340.532,299.418 341.072,298.088 341.071,296.488 C 341.072,294.875 340.525,293.529 339.432,292.45 C 338.338,291.371 336.886,290.831 335.075,290.831 Z M 335.138,293.4 C 335.796,293.4 336.198,293.741 336.343,294.424 C 336.488,295.107 336.561,295.82 336.561,296.563 C 336.561,297.575 336.458,298.303 336.253,298.749 C 336.047,299.195 335.68,299.418 335.149,299.418 C 334.661,299.418 334.303,299.188 334.077,298.728 C 333.85,298.268 333.737,297.511 333.737,296.457 C 333.737,295.218 333.854,294.399 334.088,293.999 C 334.321,293.6 334.671,293.4 335.138,293.4 Z" marker-start="none" marker-end="none"/>
    <path d="M 346.889,305.542 L 346.889,291.054 L 342.717,291.054 L 342.717,305.542 L 346.889,305.542 Z" marker-start="none" marker-end="none"/>
   </g>
  </g>
  <g id="Group_2" fill-rule="nonzero" stroke="none" stroke-width="0.251" fill="#000000">
   <g id="Group_3">
    <path d="M 265.948,280.766 L 264.809,280.766 L 264.809,287.584 L 265.948,287.584 L 265.948,280.766 Z" marker-start="none" marker-end="none"/>
    <path d="M 269.289,280.661 C 268.543,280.661 267.974,280.929 267.581,281.465 C 267.188,282.001 266.992,282.616 266.992,283.308 C 266.992,284.054 267.209,284.675 267.643,285.171 C 268.078,285.668 268.652,285.916 269.364,285.916 C 270.04,285.916 270.595,285.674 271.03,285.191 C 271.464,284.709 271.682,284.081 271.682,283.308 C 271.682,282.513 271.456,281.872 271.005,281.388 C 270.554,280.903 269.982,280.661 269.289,280.661 Z M 269.329,281.6 C 270.095,281.6 270.478,282.171 270.478,283.313 C 270.478,283.83 270.386,284.237 270.203,284.535 C 270.02,284.833 269.739,284.982 269.359,284.982 C 268.966,284.982 268.675,284.828 268.485,284.52 C 268.295,284.212 268.2,283.803 268.2,283.293 C 268.2,282.744 268.301,282.324 268.503,282.035 C 268.704,281.745 268.979,281.6 269.329,281.6 Z" marker-start="none" marker-end="none"/>
    <path d="M 277.325,286.775 L 277.325,285.901 L 276.976,285.901 C 276.823,285.901 276.689,285.882 276.574,285.846 C 276.459,285.809 276.347,285.691 276.237,285.491 C 276.636,285.165 276.836,284.802 276.836,284.402 C 276.836,283.956 276.649,283.586 276.274,283.293 C 275.9,283 275.404,282.854 274.788,282.854 C 274.522,282.854 274.21,282.897 273.854,282.984 C 273.621,282.877 273.505,282.712 273.505,282.489 C 273.505,282.366 273.561,282.253 273.674,282.15 C 273.788,282.046 273.959,281.995 274.189,281.995 L 275.687,281.995 C 276.2,281.995 276.602,281.862 276.893,281.598 C 277.185,281.333 277.33,281.004 277.33,280.611 C 277.33,280.135 277.11,279.74 276.669,279.427 C 276.227,279.114 275.574,278.958 274.708,278.958 C 273.08,278.958 272.266,279.412 272.266,280.321 C 272.266,280.771 272.511,281.112 273,281.345 C 272.687,281.612 272.53,281.89 272.53,282.18 C 272.53,282.619 272.799,282.969 273.335,283.228 C 272.868,283.511 272.635,283.901 272.635,284.397 C 272.635,284.817 272.807,285.175 273.15,285.471 C 273.493,285.767 274.014,285.916 274.713,285.916 C 275.033,285.916 275.358,285.881 275.687,285.811 C 275.841,286.453 276.245,286.775 276.901,286.775 L 277.325,286.775 Z M 274.738,283.528 C 275.358,283.528 275.667,283.819 275.667,284.402 C 275.667,284.625 275.59,284.813 275.435,284.967 C 275.28,285.12 275.055,285.196 274.758,285.196 C 274.459,285.196 274.226,285.116 274.061,284.957 C 273.896,284.797 273.814,284.597 273.814,284.357 C 273.814,284.111 273.896,283.911 274.059,283.758 C 274.222,283.605 274.448,283.528 274.738,283.528 Z M 273.489,281.041 C 273.326,280.891 273.245,280.746 273.245,280.606 C 273.245,280.376 273.381,280.174 273.654,279.999 C 273.927,279.824 274.362,279.737 274.958,279.737 C 275.834,279.737 276.272,279.962 276.272,280.411 C 276.272,280.578 276.195,280.704 276.042,280.788 C 275.889,280.873 275.714,280.916 275.517,280.916 L 274.309,280.916 C 274.079,280.916 273.806,280.958 273.489,281.041 Z" marker-start="none" marker-end="none"/>
    <path d="M 282.624,286.775 L 282.624,285.901 L 282.275,285.901 C 282.122,285.901 281.988,285.882 281.873,285.846 C 281.758,285.809 281.646,285.691 281.536,285.491 C 281.935,285.165 282.135,284.802 282.135,284.402 C 282.135,283.956 281.948,283.586 281.573,283.293 C 281.199,283 280.703,282.854 280.087,282.854 C 279.821,282.854 279.509,282.897 279.153,282.984 C 278.92,282.877 278.804,282.712 278.804,282.489 C 278.804,282.366 278.86,282.253 278.973,282.15 C 279.087,282.046 279.258,281.995 279.488,281.995 L 280.986,281.995 C 281.499,281.995 281.901,281.862 282.192,281.598 C 282.484,281.333 282.629,281.004 282.629,280.611 C 282.629,280.135 282.409,279.74 281.968,279.427 C 281.526,279.114 280.873,278.958 280.007,278.958 C 278.379,278.958 277.565,279.412 277.565,280.321 C 277.565,280.771 277.81,281.112 278.299,281.345 C 277.986,281.612 277.829,281.89 277.829,282.18 C 277.829,282.619 278.098,282.969 278.634,283.228 C 278.167,283.511 277.934,283.901 277.934,284.397 C 277.934,284.817 278.106,285.175 278.449,285.471 C 278.792,285.767 279.313,285.916 280.012,285.916 C 280.332,285.916 280.657,285.881 280.986,285.811 C 281.14,286.453 281.544,286.775 282.2,286.775 L 282.624,286.775 Z M 280.037,283.528 C 280.657,283.528 280.966,283.819 280.966,284.402 C 280.966,284.625 280.889,284.813 280.734,284.967 C 280.579,285.12 280.354,285.196 280.057,285.196 C 279.758,285.196 279.525,285.116 279.36,284.957 C 279.195,284.797 279.113,284.597 279.113,284.357 C 279.113,284.111 279.195,283.911 279.358,283.758 C 279.521,283.605 279.747,283.528 280.037,283.528 Z M 278.788,281.041 C 278.625,280.891 278.544,280.746 278.544,280.606 C 278.544,280.376 278.68,280.174 278.953,279.999 C 279.226,279.824 279.661,279.737 280.257,279.737 C 281.133,279.737 281.571,279.962 281.571,280.411 C 281.571,280.578 281.494,280.704 281.341,280.788 C 281.188,280.873 281.013,280.916 280.816,280.916 L 279.608,280.916 C 279.378,280.916 279.105,280.958 278.788,281.041 Z" marker-start="none" marker-end="none"/>
    <path d="M 284.457,286.4 L 283.318,286.4 L 283.318,287.584 L 284.457,287.584 L 284.457,286.4 Z M 284.457,280.766 L 283.318,280.766 L 283.318,285.811 L 284.457,285.811 L 284.457,280.766 Z" marker-start="none" marker-end="none"/>
    <path d="M 290.001,280.766 L 288.862,280.766 L 288.862,283.918 C 288.862,284.251 288.785,284.501 288.632,284.669 C 288.479,284.838 288.294,284.922 288.078,284.922 C 287.782,284.922 287.522,284.792 287.299,284.532 C 287.076,284.272 286.964,283.881 286.964,283.358 L 286.964,280.766 L 285.825,280.766 L 285.825,285.811 L 286.864,285.811 L 286.864,284.642 C 287.227,285.491 287.737,285.916 288.393,285.916 C 288.836,285.916 289.214,285.776 289.529,285.496 C 289.844,285.216 290.001,284.725 290.001,284.023 L 290.001,280.766 Z" marker-start="none" marker-end="none"/>
    <path d="M 295.964,286.775 L 295.964,285.901 L 295.615,285.901 C 295.462,285.901 295.328,285.882 295.213,285.846 C 295.098,285.809 294.986,285.691 294.876,285.491 C 295.275,285.165 295.475,284.802 295.475,284.402 C 295.475,283.956 295.288,283.586 294.913,283.293 C 294.539,283 294.043,282.854 293.427,282.854 C 293.161,282.854 292.849,282.897 292.493,282.984 C 292.26,282.877 292.144,282.712 292.144,282.489 C 292.144,282.366 292.2,282.253 292.313,282.15 C 292.427,282.046 292.598,281.995 292.828,281.995 L 294.326,281.995 C 294.839,281.995 295.241,281.862 295.532,281.598 C 295.824,281.333 295.969,281.004 295.969,280.611 C 295.969,280.135 295.749,279.74 295.308,279.427 C 294.866,279.114 294.213,278.958 293.347,278.958 C 291.719,278.958 290.905,279.412 290.905,280.321 C 290.905,280.771 291.15,281.112 291.639,281.345 C 291.326,281.612 291.169,281.89 291.169,282.18 C 291.169,282.619 291.438,282.969 291.974,283.228 C 291.507,283.511 291.274,283.901 291.274,284.397 C 291.274,284.817 291.446,285.175 291.789,285.471 C 292.132,285.767 292.653,285.916 293.352,285.916 C 293.672,285.916 293.997,285.881 294.326,285.811 C 294.48,286.453 294.884,286.775 295.54,286.775 L 295.964,286.775 Z M 293.377,283.528 C 293.997,283.528 294.306,283.819 294.306,284.402 C 294.306,284.625 294.229,284.813 294.074,284.967 C 293.919,285.12 293.694,285.196 293.397,285.196 C 293.098,285.196 292.865,285.116 292.7,284.957 C 292.535,284.797 292.453,284.597 292.453,284.357 C 292.453,284.111 292.535,283.911 292.698,283.758 C 292.861,283.605 293.087,283.528 293.377,283.528 Z M 292.128,281.041 C 291.965,280.891 291.884,280.746 291.884,280.606 C 291.884,280.376 292.02,280.174 292.293,279.999 C 292.566,279.824 293.001,279.737 293.597,279.737 C 294.473,279.737 294.911,279.962 294.911,280.411 C 294.911,280.578 294.834,280.704 294.681,280.788 C 294.528,280.873 294.353,280.916 294.156,280.916 L 292.948,280.916 C 292.718,280.916 292.445,280.958 292.128,281.041 Z" marker-start="none" marker-end="none"/>
    <path d="M 304.645,284.902 L 305.669,284.722 C 305.522,283.75 305.118,282.89 304.455,282.145 C 304.688,281.892 304.86,281.738 304.972,281.683 C 305.083,281.628 305.216,281.6 305.369,281.6 C 305.439,281.6 305.539,281.609 305.669,281.625 L 305.669,280.671 L 305.194,280.661 C 304.884,280.661 304.631,280.706 304.432,280.796 C 304.234,280.886 303.979,281.084 303.666,281.39 C 302.983,280.904 302.241,280.661 301.438,280.661 C 300.676,280.661 300.055,280.867 299.577,281.278 C 299.099,281.689 298.861,282.196 298.861,282.799 C 298.861,283.182 298.972,283.546 299.195,283.893 C 299.418,284.239 299.898,284.575 300.634,284.902 C 300.238,285.368 300.039,285.799 300.039,286.195 C 300.039,286.638 300.206,286.998 300.539,287.274 C 300.872,287.551 301.298,287.689 301.818,287.689 C 302.35,287.689 302.787,287.556 303.126,287.289 C 303.466,287.023 303.636,286.66 303.636,286.2 C 303.636,285.877 303.521,285.566 303.291,285.266 C 303.061,284.967 302.733,284.73 302.307,284.557 L 303.786,282.869 C 304.252,283.468 304.538,284.146 304.645,284.902 Z M 301.748,285.301 C 302.327,285.544 302.617,285.844 302.617,286.2 C 302.617,286.393 302.547,286.545 302.407,286.655 C 302.267,286.765 302.102,286.82 301.913,286.82 C 301.719,286.82 301.55,286.764 301.405,286.652 C 301.261,286.541 301.188,286.395 301.188,286.215 C 301.188,285.922 301.375,285.618 301.748,285.301 Z M 301.228,284.152 C 300.549,283.846 300.209,283.42 300.209,282.874 C 300.209,282.508 300.342,282.214 300.606,281.992 C 300.871,281.771 301.205,281.66 301.608,281.66 C 302.104,281.66 302.572,281.821 303.011,282.145 L 301.228,284.152 Z" marker-start="none" marker-end="none"/>
    <path d="M 313.709,286.775 L 313.709,285.901 L 313.36,285.901 C 313.207,285.901 313.073,285.882 312.958,285.846 C 312.843,285.809 312.731,285.691 312.621,285.491 C 313.02,285.165 313.22,284.802 313.22,284.402 C 313.22,283.956 313.033,283.586 312.658,283.293 C 312.284,283 311.788,282.854 311.172,282.854 C 310.906,282.854 310.594,282.897 310.238,282.984 C 310.005,282.877 309.889,282.712 309.889,282.489 C 309.889,282.366 309.945,282.253 310.058,282.15 C 310.172,282.046 310.343,281.995 310.573,281.995 L 312.071,281.995 C 312.584,281.995 312.986,281.862 313.277,281.598 C 313.569,281.333 313.714,281.004 313.714,280.611 C 313.714,280.135 313.494,279.74 313.053,279.427 C 312.611,279.114 311.958,278.958 311.092,278.958 C 309.464,278.958 308.65,279.412 308.65,280.321 C 308.65,280.771 308.895,281.112 309.384,281.345 C 309.071,281.612 308.914,281.89 308.914,282.18 C 308.914,282.619 309.183,282.969 309.719,283.228 C 309.252,283.511 309.019,283.901 309.019,284.397 C 309.019,284.817 309.191,285.175 309.534,285.471 C 309.877,285.767 310.398,285.916 311.097,285.916 C 311.417,285.916 311.742,285.881 312.071,285.811 C 312.225,286.453 312.629,286.775 313.285,286.775 L 313.709,286.775 Z M 311.122,283.528 C 311.742,283.528 312.051,283.819 312.051,284.402 C 312.051,284.625 311.974,284.813 311.819,284.967 C 311.664,285.12 311.439,285.196 311.142,285.196 C 310.843,285.196 310.61,285.116 310.445,284.957 C 310.28,284.797 310.198,284.597 310.198,284.357 C 310.198,284.111 310.28,283.911 310.443,283.758 C 310.606,283.605 310.832,283.528 311.122,283.528 Z M 309.873,281.041 C 309.71,280.891 309.629,280.746 309.629,280.606 C 309.629,280.376 309.765,280.174 310.038,279.999 C 310.311,279.824 310.746,279.737 311.342,279.737 C 312.218,279.737 312.656,279.962 312.656,280.411 C 312.656,280.578 312.579,280.704 312.426,280.788 C 312.273,280.873 312.098,280.916 311.901,280.916 L 310.693,280.916 C 310.463,280.916 310.19,280.958 309.873,281.041 Z" marker-start="none" marker-end="none"/>
    <path d="M 315.547,280.766 L 314.408,280.766 L 314.408,285.811 L 315.437,285.811 L 315.437,284.607 C 315.584,285.077 315.785,285.42 316.042,285.636 C 316.298,285.852 316.561,285.961 316.831,285.961 C 316.867,285.961 316.917,285.959 316.981,285.956 L 316.981,284.732 C 316.401,284.732 316.017,284.547 315.829,284.177 C 315.641,283.808 315.547,283.45 315.547,283.104 L 315.547,280.766 Z" marker-start="none" marker-end="none"/>
    <path d="M 322.115,280.766 L 321.031,280.766 C 320.934,281.072 320.876,281.412 320.856,281.785 C 320.553,281.036 319.984,280.661 319.148,280.661 C 318.645,280.661 318.241,280.808 317.937,281.103 C 317.632,281.398 317.48,281.768 317.48,282.214 C 317.48,283.373 318.497,283.953 320.531,283.953 C 320.611,283.953 320.72,283.951 320.856,283.948 L 320.856,284.327 C 320.856,284.85 320.5,285.111 319.787,285.111 C 319.095,285.111 318.702,284.85 318.608,284.327 L 317.639,284.472 C 317.693,284.892 317.909,285.237 318.289,285.509 C 318.668,285.78 319.218,285.916 319.937,285.916 C 320.327,285.916 320.645,285.883 320.891,285.818 C 321.137,285.753 321.346,285.643 321.515,285.489 C 321.685,285.334 321.803,285.165 321.868,284.984 C 321.932,284.803 321.965,284.495 321.965,284.063 L 321.965,281.785 C 321.965,281.455 322.015,281.116 322.115,280.766 Z M 320.856,283.333 C 319.384,283.333 318.648,282.982 318.648,282.279 C 318.648,282.07 318.722,281.891 318.871,281.742 C 319.019,281.594 319.243,281.52 319.542,281.52 C 319.975,281.52 320.303,281.658 320.524,281.932 C 320.745,282.207 320.856,282.519 320.856,282.869 L 320.856,283.333 Z" marker-start="none" marker-end="none"/>
    <path d="M 324.487,279.063 L 323.328,279.063 L 323.328,285.811 L 324.417,285.811 L 324.417,284.932 C 324.767,285.588 325.281,285.916 325.961,285.916 C 326.52,285.916 326.966,285.673 327.299,285.186 C 327.632,284.7 327.799,284.079 327.799,283.323 C 327.799,282.607 327.64,281.985 327.322,281.455 C 327.004,280.926 326.53,280.661 325.901,280.661 C 325.251,280.661 324.78,280.931 324.487,281.47 L 324.487,279.063 Z M 324.487,282.834 C 324.487,282.468 324.596,282.164 324.814,281.922 C 325.032,281.681 325.275,281.56 325.541,281.56 C 325.904,281.56 326.169,281.719 326.338,282.037 C 326.506,282.355 326.59,282.759 326.59,283.248 C 326.59,283.761 326.505,284.178 326.335,284.5 C 326.165,284.821 325.912,284.982 325.576,284.982 C 325.273,284.982 325.016,284.85 324.804,284.587 C 324.593,284.324 324.487,283.979 324.487,283.553 L 324.487,282.834 Z" marker-start="none" marker-end="none"/>
    <path d="M 333.013,280.766 L 331.874,280.766 L 331.874,284.068 C 331.874,284.424 331.798,284.674 331.647,284.819 C 331.495,284.964 331.318,285.037 331.115,285.037 C 330.792,285.037 330.521,284.908 330.301,284.652 C 330.081,284.396 329.971,283.973 329.971,283.383 L 329.971,280.766 L 328.832,280.766 L 328.832,287.584 L 329.971,287.584 L 329.971,284.927 C 330.254,285.653 330.75,286.016 331.46,286.016 C 332.495,286.016 333.013,285.421 333.013,284.232 L 333.013,280.766 Z" marker-start="none" marker-end="none"/>
    <path d="M 335.515,286.4 L 334.376,286.4 L 334.376,287.584 L 335.515,287.584 L 335.515,286.4 Z M 335.515,280.766 L 334.376,280.766 L 334.376,285.811 L 335.515,285.811 L 335.515,280.766 Z" marker-start="none" marker-end="none"/>
    <path d="M 341.059,280.766 L 339.92,280.766 L 339.92,283.918 C 339.92,284.251 339.843,284.501 339.69,284.669 C 339.537,284.838 339.352,284.922 339.136,284.922 C 338.84,284.922 338.58,284.792 338.357,284.532 C 338.134,284.272 338.022,283.881 338.022,283.358 L 338.022,280.766 L 336.883,280.766 L 336.883,285.811 L 337.922,285.811 L 337.922,284.642 C 338.285,285.491 338.795,285.916 339.451,285.916 C 339.894,285.916 340.272,285.776 340.587,285.496 C 340.902,285.216 341.059,284.725 341.059,284.023 L 341.059,280.766 Z" marker-start="none" marker-end="none"/>
    <path d="M 347.022,286.775 L 347.022,285.901 L 346.673,285.901 C 346.52,285.901 346.386,285.882 346.271,285.846 C 346.156,285.809 346.044,285.691 345.934,285.491 C 346.333,285.165 346.533,284.802 346.533,284.402 C 346.533,283.956 346.346,283.586 345.971,283.293 C 345.597,283 345.101,282.854 344.485,282.854 C 344.219,282.854 343.907,282.897 343.551,282.984 C 343.318,282.877 343.202,282.712 343.202,282.489 C 343.202,282.366 343.258,282.253 343.371,282.15 C 343.485,282.046 343.656,281.995 343.886,281.995 L 345.384,281.995 C 345.897,281.995 346.299,281.862 346.59,281.598 C 346.882,281.333 347.027,281.004 347.027,280.611 C 347.027,280.135 346.807,279.74 346.366,279.427 C 345.924,279.114 345.271,278.958 344.405,278.958 C 342.777,278.958 341.963,279.412 341.963,280.321 C 341.963,280.771 342.208,281.112 342.697,281.345 C 342.384,281.612 342.227,281.89 342.227,282.18 C 342.227,282.619 342.496,282.969 343.032,283.228 C 342.565,283.511 342.332,283.901 342.332,284.397 C 342.332,284.817 342.504,285.175 342.847,285.471 C 343.19,285.767 343.711,285.916 344.41,285.916 C 344.73,285.916 345.055,285.881 345.384,285.811 C 345.538,286.453 345.942,286.775 346.598,286.775 L 347.022,286.775 Z M 344.435,283.528 C 345.055,283.528 345.364,283.819 345.364,284.402 C 345.364,284.625 345.287,284.813 345.132,284.967 C 344.977,285.12 344.752,285.196 344.455,285.196 C 344.156,285.196 343.923,285.116 343.758,284.957 C 343.593,284.797 343.511,284.597 343.511,284.357 C 343.511,284.111 343.593,283.911 343.756,283.758 C 343.919,283.605 344.145,283.528 344.435,283.528 Z M 343.186,281.041 C 343.023,280.891 342.942,280.746 342.942,280.606 C 342.942,280.376 343.078,280.174 343.351,279.999 C 343.624,279.824 344.059,279.737 344.655,279.737 C 345.531,279.737 345.969,279.962 345.969,280.411 C 345.969,280.578 345.892,280.704 345.739,280.788 C 345.586,280.873 345.411,280.916 345.214,280.916 L 344.006,280.916 C 343.776,280.916 343.503,280.958 343.186,281.041 Z" marker-start="none" marker-end="none"/>
   </g>
  </g>
 </g>
</svg>
