<?xml version="1.0" standalone="no"?>
<!DOCTYPE svg PUBLIC "-//W3C//DTD SVG 1.1//EN" "http://www.w3.org/Graphics/SVG/1.1/DTD/svg11.dtd">
<!--Generator: Xara Designer (www.xara.com), SVG filter version: 6.6.0.1-->
<svg fill="none" fill-rule="evenodd" stroke="black" stroke-width="0.501" stroke-linejoin="bevel" stroke-miterlimit="10" font-family="Times New Roman" font-size="16" style="font-variant-ligatures:none" xmlns:xlink="http://www.w3.org/1999/xlink" xmlns="http://www.w3.org/2000/svg" version="1.1" overflow="visible" width="81.459pt" height="26.775pt" viewBox="265.098 -254.704 81.459 26.775">
 <defs>
	</defs>
 <g id="Layer 1" transform="scale(1 -1)">
  <g id="Group" fill-rule="nonzero" stroke="none" stroke-width="0.534" fill="#7f9fff">
   <g id="Group_1">
    <path d="M 277.802,240.433 L 272.94,240.433 L 270.859,245.891 L 269.479,245.891 L 269.479,240.433 L 265.098,240.433 L 265.098,254.704 L 272.553,254.704 C 274.198,254.704 275.476,254.319 276.385,253.549 C 277.295,252.779 277.75,251.763 277.75,250.501 C 277.75,249.679 277.582,248.952 277.248,248.321 C 276.913,247.691 276.237,247.135 275.219,246.654 L 277.802,240.433 Z M 269.479,248.943 L 271.351,248.943 C 271.901,248.943 272.344,249.058 272.679,249.288 C 273.013,249.518 273.18,249.857 273.18,250.303 C 273.18,251.216 272.619,251.672 271.497,251.672 L 269.479,251.672 L 269.479,248.943 Z" marker-start="none" marker-end="none"/>
    <path d="M 292.576,240.433 L 287.714,240.433 L 285.633,245.891 L 284.253,245.891 L 284.253,240.433 L 279.872,240.433 L 279.872,254.704 L 287.327,254.704 C 288.972,254.704 290.25,254.319 291.159,253.549 C 292.069,252.779 292.524,251.763 292.524,250.501 C 292.524,249.679 292.356,248.952 292.022,248.321 C 291.687,247.691 291.011,247.135 289.993,246.654 L 292.576,240.433 Z M 284.253,248.943 L 286.125,248.943 C 286.675,248.943 287.118,249.058 287.453,249.288 C 287.787,249.518 287.954,249.857 287.954,250.303 C 287.954,251.216 287.393,251.672 286.271,251.672 L 284.253,251.672 L 284.253,248.943 Z" marker-start="none" marker-end="none"/>
    <path d="M 294.646,240.433 L 294.646,254.704 L 300.167,254.704 C 302.565,254.704 304.36,253.993 305.552,252.571 C 306.743,251.149 307.339,249.504 307.339,247.637 C 307.339,245.504 306.7,243.77 305.421,242.435 C 304.142,241.1 302.481,240.433 300.439,240.433 L 294.646,240.433 Z M 299.027,243.716 L 300.167,243.716 C 300.892,243.716 301.504,244.068 302.002,244.772 C 302.5,245.476 302.75,246.434 302.75,247.647 C 302.75,248.685 302.528,249.581 302.085,250.334 C 301.643,251.087 301.003,251.463 300.167,251.463 L 299.027,251.463 L 299.027,243.716 Z" marker-start="none" marker-end="none"/>
    <path d="M 315.609,251.066 L 315.609,248.358 L 313.487,248.358 L 313.487,244.437 C 313.487,243.9 313.588,243.582 313.79,243.48 C 313.992,243.379 314.201,243.329 314.417,243.329 C 314.752,243.329 315.149,243.388 315.609,243.507 L 315.609,240.537 C 314.787,240.377 313.978,240.297 313.183,240.297 C 311.901,240.297 310.958,240.572 310.355,241.123 C 309.752,241.673 309.451,242.552 309.451,243.758 L 309.461,245.002 L 309.461,248.358 L 307.872,248.358 L 307.872,251.066 L 309.461,251.066 L 309.524,254.527 L 313.487,254.589 L 313.487,251.066 L 315.609,251.066 Z" marker-start="none" marker-end="none"/>
    <path d="M 322.196,240.213 C 320.433,240.213 319.032,240.762 317.993,241.86 C 316.955,242.958 316.435,244.246 316.435,245.723 C 316.435,247.312 316.977,248.637 318.061,249.696 C 319.145,250.756 320.555,251.285 322.29,251.285 C 324.04,251.285 325.446,250.762 326.509,249.717 C 327.573,248.671 328.104,247.361 328.104,245.786 C 328.104,244.197 327.565,242.871 326.489,241.808 C 325.411,240.745 323.981,240.213 322.196,240.213 Z M 322.259,242.744 C 322.907,242.744 323.303,243.08 323.446,243.752 C 323.589,244.425 323.66,245.127 323.66,245.859 C 323.66,246.856 323.559,247.574 323.357,248.013 C 323.155,248.452 322.792,248.671 322.27,248.671 C 321.789,248.671 321.436,248.445 321.213,247.992 C 320.99,247.539 320.879,246.793 320.879,245.755 C 320.879,244.535 320.994,243.728 321.224,243.334 C 321.454,242.94 321.799,242.744 322.259,242.744 Z" marker-start="none" marker-end="none"/>
    <path d="M 334.92,240.213 C 333.157,240.213 331.756,240.762 330.717,241.86 C 329.679,242.958 329.159,244.246 329.159,245.723 C 329.159,247.312 329.701,248.637 330.785,249.696 C 331.869,250.756 333.279,251.285 335.014,251.285 C 336.764,251.285 338.17,250.762 339.233,249.717 C 340.297,248.671 340.828,247.361 340.828,245.786 C 340.828,244.197 340.289,242.871 339.213,241.808 C 338.135,240.745 336.705,240.213 334.92,240.213 Z M 334.983,242.744 C 335.631,242.744 336.027,243.08 336.17,243.752 C 336.313,244.425 336.384,245.127 336.384,245.859 C 336.384,246.856 336.283,247.574 336.081,248.013 C 335.879,248.452 335.516,248.671 334.994,248.671 C 334.513,248.671 334.16,248.445 333.937,247.992 C 333.714,247.539 333.603,246.793 333.603,245.755 C 333.603,244.535 333.718,243.728 333.948,243.334 C 334.178,242.94 334.523,242.744 334.983,242.744 Z" marker-start="none" marker-end="none"/>
    <path d="M 346.557,254.704 L 346.557,240.433 L 342.448,240.433 L 342.448,254.704 L 346.557,254.704 Z" marker-start="none" marker-end="none"/>
   </g>
  </g>
  <g id="Group_2" fill-rule="nonzero" stroke="none" stroke-width="0.249" fill="#cccccc">
   <g id="Group_3">
    <path d="M 266.58,229.702 L 265.463,229.702 L 265.463,236.387 L 266.58,236.387 L 266.58,229.702 Z" marker-start="none" marker-end="none"/>
    <path d="M 269.856,229.599 C 269.125,229.599 268.567,229.862 268.182,230.388 C 267.796,230.913 267.604,231.516 267.604,232.195 C 267.604,232.926 267.817,233.535 268.243,234.022 C 268.669,234.508 269.231,234.751 269.93,234.751 C 270.593,234.751 271.137,234.515 271.563,234.041 C 271.989,233.568 272.203,232.952 272.203,232.195 C 272.203,231.415 271.981,230.787 271.539,230.312 C 271.097,229.837 270.536,229.599 269.856,229.599 Z M 269.896,230.52 C 270.647,230.52 271.022,231.08 271.022,232.2 C 271.022,232.706 270.932,233.105 270.753,233.397 C 270.573,233.69 270.297,233.836 269.925,233.836 C 269.54,233.836 269.254,233.685 269.068,233.383 C 268.882,233.081 268.789,232.68 268.789,232.18 C 268.789,231.641 268.888,231.23 269.085,230.946 C 269.283,230.662 269.553,230.52 269.896,230.52 Z" marker-start="none" marker-end="none"/>
    <path d="M 277.737,235.594 L 277.737,234.737 L 277.394,234.737 C 277.244,234.737 277.112,234.719 277,234.683 C 276.887,234.647 276.777,234.531 276.669,234.335 C 277.061,234.015 277.257,233.659 277.257,233.268 C 277.257,232.83 277.073,232.468 276.706,232.18 C 276.339,231.893 275.853,231.749 275.249,231.749 C 274.987,231.749 274.682,231.792 274.333,231.876 C 274.104,231.772 273.99,231.61 273.99,231.392 C 273.99,231.271 274.045,231.16 274.156,231.059 C 274.267,230.957 274.436,230.907 274.661,230.907 L 276.13,230.907 C 276.633,230.907 277.027,230.777 277.313,230.518 C 277.599,230.258 277.742,229.935 277.742,229.55 C 277.742,229.083 277.525,228.696 277.093,228.389 C 276.66,228.082 276.019,227.929 275.17,227.929 C 273.574,227.929 272.775,228.375 272.775,229.266 C 272.775,229.707 273.015,230.041 273.495,230.27 C 273.188,230.531 273.035,230.804 273.035,231.088 C 273.035,231.519 273.298,231.862 273.823,232.117 C 273.366,232.394 273.138,232.776 273.138,233.263 C 273.138,233.674 273.306,234.025 273.642,234.316 C 273.979,234.606 274.49,234.751 275.175,234.751 C 275.489,234.751 275.807,234.717 276.13,234.649 C 276.281,235.279 276.677,235.594 277.32,235.594 L 277.737,235.594 Z M 275.2,232.41 C 275.807,232.41 276.111,232.696 276.111,233.268 C 276.111,233.486 276.035,233.671 275.883,233.821 C 275.731,233.971 275.51,234.046 275.219,234.046 C 274.925,234.046 274.698,233.968 274.536,233.811 C 274.374,233.654 274.294,233.459 274.294,233.223 C 274.294,232.982 274.374,232.786 274.534,232.636 C 274.694,232.486 274.916,232.41 275.2,232.41 Z M 273.975,229.971 C 273.815,229.824 273.735,229.682 273.735,229.545 C 273.735,229.32 273.869,229.122 274.137,228.95 C 274.405,228.779 274.831,228.693 275.415,228.693 C 276.274,228.693 276.703,228.913 276.703,229.354 C 276.703,229.518 276.628,229.641 276.478,229.724 C 276.328,229.807 276.156,229.849 275.964,229.849 L 274.778,229.849 C 274.553,229.849 274.285,229.89 273.975,229.971 Z" marker-start="none" marker-end="none"/>
    <path d="M 282.934,235.594 L 282.934,234.737 L 282.591,234.737 C 282.441,234.737 282.309,234.719 282.197,234.683 C 282.084,234.647 281.974,234.531 281.866,234.335 C 282.258,234.015 282.454,233.659 282.454,233.268 C 282.454,232.83 282.27,232.468 281.903,232.18 C 281.536,231.893 281.05,231.749 280.446,231.749 C 280.184,231.749 279.879,231.792 279.53,231.876 C 279.301,231.772 279.187,231.61 279.187,231.392 C 279.187,231.271 279.242,231.16 279.353,231.059 C 279.464,230.957 279.633,230.907 279.858,230.907 L 281.327,230.907 C 281.83,230.907 282.224,230.777 282.51,230.518 C 282.796,230.258 282.939,229.935 282.939,229.55 C 282.939,229.083 282.722,228.696 282.29,228.389 C 281.857,228.082 281.216,227.929 280.367,227.929 C 278.771,227.929 277.972,228.375 277.972,229.266 C 277.972,229.707 278.212,230.041 278.692,230.27 C 278.385,230.531 278.232,230.804 278.232,231.088 C 278.232,231.519 278.495,231.862 279.02,232.117 C 278.563,232.394 278.335,232.776 278.335,233.263 C 278.335,233.674 278.503,234.025 278.839,234.316 C 279.176,234.606 279.687,234.751 280.372,234.751 C 280.686,234.751 281.004,234.717 281.327,234.649 C 281.478,235.279 281.874,235.594 282.517,235.594 L 282.934,235.594 Z M 280.397,232.41 C 281.004,232.41 281.308,232.696 281.308,233.268 C 281.308,233.486 281.232,233.671 281.08,233.821 C 280.928,233.971 280.707,234.046 280.416,234.046 C 280.122,234.046 279.895,233.968 279.733,233.811 C 279.571,233.654 279.491,233.459 279.491,233.223 C 279.491,232.982 279.571,232.786 279.731,232.636 C 279.891,232.486 280.113,232.41 280.397,232.41 Z M 279.172,229.971 C 279.012,229.824 278.932,229.682 278.932,229.545 C 278.932,229.32 279.066,229.122 279.334,228.95 C 279.602,228.779 280.028,228.693 280.612,228.693 C 281.471,228.693 281.9,228.913 281.9,229.354 C 281.9,229.518 281.825,229.641 281.675,229.724 C 281.525,229.807 281.353,229.849 281.161,229.849 L 279.975,229.849 C 279.75,229.849 279.482,229.89 279.172,229.971 Z" marker-start="none" marker-end="none"/>
    <path d="M 284.732,235.227 L 283.615,235.227 L 283.615,236.387 L 284.732,236.387 L 284.732,235.227 Z M 284.732,229.702 L 283.615,229.702 L 283.615,234.649 L 284.732,234.649 L 284.732,229.702 Z" marker-start="none" marker-end="none"/>
    <path d="M 290.168,229.702 L 289.052,229.702 L 289.052,232.792 C 289.052,233.119 288.977,233.365 288.826,233.53 C 288.676,233.694 288.495,233.777 288.283,233.777 C 287.992,233.777 287.738,233.65 287.519,233.395 C 287.3,233.14 287.191,232.757 287.191,232.244 L 287.191,229.702 L 286.074,229.702 L 286.074,234.649 L 287.093,234.649 L 287.093,233.503 C 287.449,234.335 287.948,234.751 288.591,234.751 C 289.026,234.751 289.397,234.614 289.706,234.34 C 290.014,234.066 290.168,233.584 290.168,232.895 L 290.168,229.702 Z" marker-start="none" marker-end="none"/>
    <path d="M 296.017,235.594 L 296.017,234.737 L 295.674,234.737 C 295.524,234.737 295.392,234.719 295.28,234.683 C 295.167,234.647 295.057,234.531 294.949,234.335 C 295.341,234.015 295.537,233.659 295.537,233.268 C 295.537,232.83 295.353,232.468 294.986,232.18 C 294.619,231.893 294.133,231.749 293.529,231.749 C 293.267,231.749 292.962,231.792 292.613,231.876 C 292.384,231.772 292.27,231.61 292.27,231.392 C 292.27,231.271 292.325,231.16 292.436,231.059 C 292.547,230.957 292.716,230.907 292.941,230.907 L 294.41,230.907 C 294.913,230.907 295.307,230.777 295.593,230.518 C 295.879,230.258 296.022,229.935 296.022,229.55 C 296.022,229.083 295.805,228.696 295.373,228.389 C 294.94,228.082 294.299,227.929 293.45,227.929 C 291.854,227.929 291.055,228.375 291.055,229.266 C 291.055,229.707 291.295,230.041 291.775,230.27 C 291.468,230.531 291.315,230.804 291.315,231.088 C 291.315,231.519 291.578,231.862 292.103,232.117 C 291.646,232.394 291.418,232.776 291.418,233.263 C 291.418,233.674 291.586,234.025 291.922,234.316 C 292.259,234.606 292.77,234.751 293.455,234.751 C 293.769,234.751 294.087,234.717 294.41,234.649 C 294.561,235.279 294.957,235.594 295.6,235.594 L 296.017,235.594 Z M 293.48,232.41 C 294.087,232.41 294.391,232.696 294.391,233.268 C 294.391,233.486 294.315,233.671 294.163,233.821 C 294.011,233.971 293.79,234.046 293.499,234.046 C 293.205,234.046 292.978,233.968 292.816,233.811 C 292.654,233.654 292.574,233.459 292.574,233.223 C 292.574,232.982 292.654,232.786 292.814,232.636 C 292.974,232.486 293.196,232.41 293.48,232.41 Z M 292.255,229.971 C 292.095,229.824 292.015,229.682 292.015,229.545 C 292.015,229.32 292.149,229.122 292.417,228.95 C 292.685,228.779 293.111,228.693 293.695,228.693 C 294.554,228.693 294.983,228.913 294.983,229.354 C 294.983,229.518 294.908,229.641 294.758,229.724 C 294.608,229.807 294.436,229.849 294.244,229.849 L 293.058,229.849 C 292.833,229.849 292.565,229.89 292.255,229.971 Z" marker-start="none" marker-end="none"/>
    <path d="M 304.53,233.757 L 305.534,233.581 C 305.39,232.628 304.994,231.785 304.344,231.054 C 304.572,230.806 304.741,230.655 304.851,230.601 C 304.96,230.547 305.09,230.52 305.24,230.52 C 305.309,230.52 305.407,230.528 305.534,230.544 L 305.534,229.609 L 305.069,229.599 C 304.765,229.599 304.516,229.643 304.322,229.731 C 304.127,229.819 303.877,230.014 303.57,230.314 C 302.901,229.838 302.172,229.599 301.386,229.599 C 300.638,229.599 300.03,229.801 299.561,230.204 C 299.092,230.607 298.858,231.104 298.858,231.695 C 298.858,232.071 298.968,232.428 299.186,232.768 C 299.405,233.107 299.875,233.437 300.597,233.757 C 300.208,234.214 300.014,234.637 300.014,235.026 C 300.014,235.46 300.177,235.813 300.504,236.084 C 300.83,236.355 301.248,236.49 301.758,236.49 C 302.28,236.49 302.708,236.36 303.041,236.098 C 303.374,235.837 303.541,235.481 303.541,235.031 C 303.541,234.714 303.428,234.409 303.203,234.115 C 302.977,233.821 302.656,233.589 302.238,233.419 L 303.687,231.764 C 304.144,232.352 304.425,233.016 304.53,233.757 Z M 301.689,234.149 C 302.257,234.387 302.541,234.681 302.541,235.031 C 302.541,235.22 302.473,235.369 302.336,235.476 C 302.199,235.584 302.037,235.638 301.851,235.638 C 301.661,235.638 301.496,235.583 301.354,235.474 C 301.212,235.365 301.141,235.222 301.141,235.045 C 301.141,234.758 301.323,234.459 301.689,234.149 Z M 301.18,233.023 C 300.514,232.722 300.181,232.304 300.181,231.769 C 300.181,231.41 300.31,231.122 300.57,230.904 C 300.83,230.687 301.157,230.579 301.552,230.579 C 302.038,230.579 302.497,230.737 302.928,231.054 L 301.18,233.023 Z" marker-start="none" marker-end="none"/>
    <path d="M 313.42,235.594 L 313.42,234.737 L 313.077,234.737 C 312.927,234.737 312.795,234.719 312.683,234.683 C 312.57,234.647 312.46,234.531 312.352,234.335 C 312.744,234.015 312.94,233.659 312.94,233.268 C 312.94,232.83 312.756,232.468 312.389,232.18 C 312.022,231.893 311.536,231.749 310.932,231.749 C 310.67,231.749 310.365,231.792 310.016,231.876 C 309.787,231.772 309.673,231.61 309.673,231.392 C 309.673,231.271 309.728,231.16 309.839,231.059 C 309.95,230.957 310.119,230.907 310.344,230.907 L 311.813,230.907 C 312.316,230.907 312.71,230.777 312.996,230.518 C 313.282,230.258 313.425,229.935 313.425,229.55 C 313.425,229.083 313.208,228.696 312.776,228.389 C 312.343,228.082 311.702,227.929 310.853,227.929 C 309.257,227.929 308.458,228.375 308.458,229.266 C 308.458,229.707 308.698,230.041 309.178,230.27 C 308.871,230.531 308.718,230.804 308.718,231.088 C 308.718,231.519 308.981,231.862 309.506,232.117 C 309.049,232.394 308.821,232.776 308.821,233.263 C 308.821,233.674 308.989,234.025 309.325,234.316 C 309.662,234.606 310.173,234.751 310.858,234.751 C 311.172,234.751 311.49,234.717 311.813,234.649 C 311.964,235.279 312.36,235.594 313.003,235.594 L 313.42,235.594 Z M 310.883,232.41 C 311.49,232.41 311.794,232.696 311.794,233.268 C 311.794,233.486 311.718,233.671 311.566,233.821 C 311.414,233.971 311.193,234.046 310.902,234.046 C 310.608,234.046 310.381,233.968 310.219,233.811 C 310.057,233.654 309.977,233.459 309.977,233.223 C 309.977,232.982 310.057,232.786 310.217,232.636 C 310.377,232.486 310.599,232.41 310.883,232.41 Z M 309.658,229.971 C 309.498,229.824 309.418,229.682 309.418,229.545 C 309.418,229.32 309.552,229.122 309.82,228.95 C 310.088,228.779 310.514,228.693 311.098,228.693 C 311.957,228.693 312.386,228.913 312.386,229.354 C 312.386,229.518 312.311,229.641 312.161,229.724 C 312.011,229.807 311.839,229.849 311.647,229.849 L 310.461,229.849 C 310.236,229.849 309.968,229.89 309.658,229.971 Z" marker-start="none" marker-end="none"/>
    <path d="M 315.223,229.702 L 314.106,229.702 L 314.106,234.649 L 315.115,234.649 L 315.115,233.468 C 315.259,233.929 315.456,234.265 315.708,234.477 C 315.959,234.69 316.217,234.796 316.481,234.796 C 316.517,234.796 316.566,234.794 316.628,234.791 L 316.628,233.591 C 316.06,233.591 315.684,233.409 315.499,233.047 C 315.315,232.685 315.223,232.334 315.223,231.994 L 315.223,229.702 Z" marker-start="none" marker-end="none"/>
    <path d="M 321.663,229.702 L 320.601,229.702 C 320.506,230.002 320.449,230.335 320.429,230.701 C 320.132,229.967 319.574,229.599 318.754,229.599 C 318.261,229.599 317.865,229.744 317.567,230.033 C 317.268,230.321 317.118,230.685 317.118,231.122 C 317.118,232.258 318.116,232.827 320.111,232.827 C 320.189,232.827 320.295,232.825 320.429,232.822 L 320.429,233.194 C 320.429,233.707 320.08,233.963 319.381,233.963 C 318.702,233.963 318.317,233.707 318.225,233.194 L 317.275,233.336 C 317.327,233.747 317.54,234.086 317.912,234.352 C 318.284,234.618 318.823,234.751 319.528,234.751 C 319.91,234.751 320.222,234.72 320.464,234.656 C 320.705,234.592 320.909,234.485 321.076,234.333 C 321.242,234.181 321.357,234.016 321.421,233.838 C 321.485,233.66 321.517,233.359 321.517,232.934 L 321.517,230.701 C 321.517,230.378 321.566,230.045 321.663,229.702 Z M 320.429,232.219 C 318.986,232.219 318.265,231.875 318.265,231.186 C 318.265,230.98 318.337,230.805 318.482,230.659 C 318.628,230.514 318.847,230.442 319.141,230.442 C 319.566,230.442 319.887,230.576 320.104,230.846 C 320.321,231.115 320.429,231.421 320.429,231.764 L 320.429,232.219 Z" marker-start="none" marker-end="none"/>
    <path d="M 323.99,228.032 L 322.854,228.032 L 322.854,234.649 L 323.922,234.649 L 323.922,233.787 C 324.264,234.43 324.769,234.751 325.435,234.751 C 325.984,234.751 326.421,234.513 326.748,234.036 C 327.074,233.56 327.237,232.951 327.237,232.21 C 327.237,231.508 327.082,230.897 326.77,230.378 C 326.458,229.859 325.993,229.599 325.376,229.599 C 324.74,229.599 324.277,229.864 323.99,230.393 L 323.99,228.032 Z M 323.99,231.73 C 323.99,231.371 324.097,231.073 324.311,230.836 C 324.525,230.599 324.762,230.481 325.024,230.481 C 325.379,230.481 325.64,230.637 325.805,230.948 C 325.97,231.26 326.052,231.656 326.052,232.136 C 326.052,232.639 325.969,233.048 325.802,233.363 C 325.636,233.678 325.388,233.836 325.058,233.836 C 324.761,233.836 324.508,233.707 324.301,233.449 C 324.094,233.191 323.99,232.853 323.99,232.435 L 323.99,231.73 Z" marker-start="none" marker-end="none"/>
    <path d="M 332.35,229.702 L 331.234,229.702 L 331.234,232.939 C 331.234,233.289 331.159,233.534 331.011,233.676 C 330.862,233.819 330.688,233.89 330.489,233.89 C 330.173,233.89 329.906,233.764 329.691,233.512 C 329.475,233.261 329.368,232.846 329.368,232.268 L 329.368,229.702 L 328.251,229.702 L 328.251,236.387 L 329.368,236.387 L 329.368,233.782 C 329.645,234.494 330.132,234.849 330.827,234.849 C 331.843,234.849 332.35,234.267 332.35,233.101 L 332.35,229.702 Z" marker-start="none" marker-end="none"/>
    <path d="M 334.805,235.227 L 333.688,235.227 L 333.688,236.387 L 334.805,236.387 L 334.805,235.227 Z M 334.805,229.702 L 333.688,229.702 L 333.688,234.649 L 334.805,234.649 L 334.805,229.702 Z" marker-start="none" marker-end="none"/>
    <path d="M 340.241,229.702 L 339.125,229.702 L 339.125,232.792 C 339.125,233.119 339.05,233.365 338.899,233.53 C 338.749,233.694 338.568,233.777 338.356,233.777 C 338.065,233.777 337.811,233.65 337.592,233.395 C 337.373,233.14 337.264,232.757 337.264,232.244 L 337.264,229.702 L 336.147,229.702 L 336.147,234.649 L 337.166,234.649 L 337.166,233.503 C 337.522,234.335 338.021,234.751 338.664,234.751 C 339.099,234.751 339.47,234.614 339.779,234.34 C 340.087,234.066 340.241,233.584 340.241,232.895 L 340.241,229.702 Z" marker-start="none" marker-end="none"/>
    <path d="M 346.09,235.594 L 346.09,234.737 L 345.747,234.737 C 345.597,234.737 345.465,234.719 345.353,234.683 C 345.24,234.647 345.13,234.531 345.022,234.335 C 345.414,234.015 345.61,233.659 345.61,233.268 C 345.61,232.83 345.426,232.468 345.059,232.18 C 344.692,231.893 344.206,231.749 343.602,231.749 C 343.34,231.749 343.035,231.792 342.686,231.876 C 342.457,231.772 342.343,231.61 342.343,231.392 C 342.343,231.271 342.398,231.16 342.509,231.059 C 342.62,230.957 342.789,230.907 343.014,230.907 L 344.483,230.907 C 344.986,230.907 345.38,230.777 345.666,230.518 C 345.952,230.258 346.095,229.935 346.095,229.55 C 346.095,229.083 345.878,228.696 345.446,228.389 C 345.013,228.082 344.372,227.929 343.523,227.929 C 341.927,227.929 341.128,228.375 341.128,229.266 C 341.128,229.707 341.368,230.041 341.848,230.27 C 341.541,230.531 341.388,230.804 341.388,231.088 C 341.388,231.519 341.651,231.862 342.176,232.117 C 341.719,232.394 341.491,232.776 341.491,233.263 C 341.491,233.674 341.659,234.025 341.995,234.316 C 342.332,234.606 342.843,234.751 343.528,234.751 C 343.842,234.751 344.16,234.717 344.483,234.649 C 344.634,235.279 345.03,235.594 345.673,235.594 L 346.09,235.594 Z M 343.553,232.41 C 344.16,232.41 344.464,232.696 344.464,233.268 C 344.464,233.486 344.388,233.671 344.236,233.821 C 344.084,233.971 343.863,234.046 343.572,234.046 C 343.278,234.046 343.051,233.968 342.889,233.811 C 342.727,233.654 342.647,233.459 342.647,233.223 C 342.647,232.982 342.727,232.786 342.887,232.636 C 343.047,232.486 343.269,232.41 343.553,232.41 Z M 342.328,229.971 C 342.168,229.824 342.088,229.682 342.088,229.545 C 342.088,229.32 342.222,229.122 342.49,228.95 C 342.758,228.779 343.184,228.693 343.768,228.693 C 344.627,228.693 345.056,228.913 345.056,229.354 C 345.056,229.518 344.981,229.641 344.831,229.724 C 344.681,229.807 344.509,229.849 344.317,229.849 L 343.131,229.849 C 342.906,229.849 342.638,229.89 342.328,229.971 Z" marker-start="none" marker-end="none"/>
   </g>
  </g>
 </g>
</svg>
