<?xml version="1.0" encoding="UTF-8" standalone="no"?>
<!DOCTYPE svg PUBLIC "-//W3C//DTD SVG 1.1//EN"
 "http://www.w3.org/Graphics/SVG/1.1/DTD/svg11.dtd">
<!-- Generated by graphviz version 2.29.20110630.0445 (20110630.0445)
 -->
<!-- Title: rrdtool dependency graph Pages: 1 -->
<svg width="639pt" height="404pt"
 viewBox="0.00 0.00 639.00 404.00" xmlns="http://www.w3.org/2000/svg" xmlns:xlink="http://www.w3.org/1999/xlink">
<g id="graph1" class="graph" transform="scale(1 1) rotate(0) translate(4 400)">
<title>rrdtool dependency graph</title>
<polygon fill="white" stroke="white" points="-4,5 -4,-400 636,-400 636,5 -4,5"/>
<!-- zlib -->
<g id="node1" class="node"><title>zlib</title>
<ellipse fill="none" stroke="black" cx="443" cy="-378" rx="27" ry="18"/>
<text text-anchor="middle" x="443" y="-374.3" font-family="Times New Roman,serif" font-size="14.00">zlib</text>
</g>
<!-- libpng -->
<g id="node3" class="node"><title>libpng</title>
<ellipse fill="none" stroke="black" cx="597" cy="-234" rx="33.2209" ry="18"/>
<text text-anchor="middle" x="597" y="-230.3" font-family="Times New Roman,serif" font-size="14.00">libpng</text>
</g>
<!-- zlib&#45;&gt;libpng -->
<g id="edge2" class="edge"><title>zlib&#45;&gt;libpng</title>
<path fill="none" stroke="black" d="M467.276,-369.846C490.834,-361.877 526.392,-347.003 550,-324 567.904,-306.555 580.476,-280.813 588.083,-261.496"/>
<polygon fill="black" stroke="black" points="591.388,-262.65 591.61,-252.057 584.831,-260.199 591.388,-262.65"/>
</g>
<!-- freetype -->
<g id="node5" class="node"><title>freetype</title>
<ellipse fill="none" stroke="black" cx="443" cy="-306" rx="39.9464" ry="18"/>
<text text-anchor="middle" x="443" y="-302.3" font-family="Times New Roman,serif" font-size="14.00">freetype</text>
</g>
<!-- zlib&#45;&gt;freetype -->
<g id="edge4" class="edge"><title>zlib&#45;&gt;freetype</title>
<path fill="none" stroke="black" d="M443,-359.697C443,-351.983 443,-342.712 443,-334.112"/>
<polygon fill="black" stroke="black" points="446.5,-334.104 443,-324.104 439.5,-334.104 446.5,-334.104"/>
</g>
<!-- libxml2 -->
<g id="node11" class="node"><title>libxml2</title>
<ellipse fill="none" stroke="black" cx="37" cy="-234" rx="37.0701" ry="18"/>
<text text-anchor="middle" x="37" y="-230.3" font-family="Times New Roman,serif" font-size="14.00">libxml2</text>
</g>
<!-- zlib&#45;&gt;libxml2 -->
<g id="edge12" class="edge"><title>zlib&#45;&gt;libxml2</title>
<path fill="none" stroke="black" d="M415.915,-376.837C338.443,-375.824 118.099,-368.966 65,-324 47.1872,-308.916 40.5561,-282.613 38.1624,-262.502"/>
<polygon fill="black" stroke="black" points="41.6315,-262.002 37.2421,-252.359 34.6601,-262.634 41.6315,-262.002"/>
</g>
<!-- glib -->
<g id="node14" class="node"><title>glib</title>
<ellipse fill="none" stroke="black" cx="182" cy="-162" rx="27" ry="18"/>
<text text-anchor="middle" x="182" y="-158.3" font-family="Times New Roman,serif" font-size="14.00">glib</text>
</g>
<!-- zlib&#45;&gt;glib -->
<g id="edge14" class="edge"><title>zlib&#45;&gt;glib</title>
<path fill="none" stroke="black" d="M416.943,-372.557C364.99,-362.141 249.357,-330.791 201,-252 189.601,-233.427 184.97,-209.032 183.122,-190.48"/>
<polygon fill="black" stroke="black" points="186.597,-190.016 182.326,-180.32 179.618,-190.563 186.597,-190.016"/>
</g>
<!-- cairo -->
<g id="node23" class="node"><title>cairo</title>
<ellipse fill="none" stroke="black" cx="433" cy="-162" rx="28.3955" ry="18"/>
<text text-anchor="middle" x="433" y="-158.3" font-family="Times New Roman,serif" font-size="14.00">cairo</text>
</g>
<!-- zlib&#45;&gt;cairo -->
<g id="edge32" class="edge"><title>zlib&#45;&gt;cairo</title>
<path fill="none" stroke="black" d="M460.404,-363.777C471.642,-354.122 485.363,-339.969 492,-324 510.43,-279.659 515.094,-259.612 495,-216 488.163,-201.161 474.896,-188.933 462.383,-179.975"/>
<polygon fill="black" stroke="black" points="464.183,-176.969 453.928,-174.305 460.284,-182.782 464.183,-176.969"/>
</g>
<!-- libpng&#45;&gt;cairo -->
<g id="edge28" class="edge"><title>libpng&#45;&gt;cairo</title>
<path fill="none" stroke="black" d="M571.734,-222.216C543.196,-210.035 496.674,-190.178 465.464,-176.857"/>
<polygon fill="black" stroke="black" points="466.483,-173.486 455.911,-172.779 463.735,-179.924 466.483,-173.486"/>
</g>
<!-- rrdtool -->
<g id="node34" class="node"><title>rrdtool</title>
<ellipse fill="none" stroke="black" cx="243" cy="-18" rx="35.6194" ry="18"/>
<text text-anchor="middle" x="243" y="-14.3" font-family="Times New Roman,serif" font-size="14.00">rrdtool</text>
</g>
<!-- libpng&#45;&gt;rrdtool -->
<g id="edge46" class="edge"><title>libpng&#45;&gt;rrdtool</title>
<path fill="none" stroke="black" d="M577.978,-218.95C537.638,-189.507 439.982,-120.09 352,-72 327.553,-58.6373 299.236,-44.9194 277.592,-34.7883"/>
<polygon fill="black" stroke="black" points="278.999,-31.5828 268.456,-30.5391 276.047,-37.9299 278.999,-31.5828"/>
</g>
<!-- fontconfig -->
<g id="node20" class="node"><title>fontconfig</title>
<ellipse fill="none" stroke="black" cx="330" cy="-234" rx="48.1437" ry="18"/>
<text text-anchor="middle" x="330" y="-230.3" font-family="Times New Roman,serif" font-size="14.00">fontconfig</text>
</g>
<!-- freetype&#45;&gt;fontconfig -->
<g id="edge22" class="edge"><title>freetype&#45;&gt;fontconfig</title>
<path fill="none" stroke="black" d="M420.404,-291.003C403.799,-280.716 380.995,-266.59 362.444,-255.098"/>
<polygon fill="black" stroke="black" points="364.069,-251.988 353.725,-249.697 360.383,-257.939 364.069,-251.988"/>
</g>
<!-- freetype&#45;&gt;cairo -->
<g id="edge26" class="edge"><title>freetype&#45;&gt;cairo</title>
<path fill="none" stroke="black" d="M457.489,-289.166C465.533,-279.273 474.75,-265.822 479,-252 483.703,-236.707 484.597,-230.989 479,-216 474.516,-203.994 465.951,-192.906 457.416,-184.009"/>
<polygon fill="black" stroke="black" points="459.623,-181.273 450.025,-176.787 454.731,-186.279 459.623,-181.273"/>
</g>
<!-- libiconv -->
<g id="node6" class="node"><title>libiconv</title>
<ellipse fill="none" stroke="black" cx="114" cy="-306" rx="39.4691" ry="18"/>
<text text-anchor="middle" x="114" y="-302.3" font-family="Times New Roman,serif" font-size="14.00">libiconv</text>
</g>
<!-- libintl -->
<g id="node8" class="node"><title>libintl</title>
<ellipse fill="none" stroke="black" cx="123" cy="-234" rx="30.3206" ry="18"/>
<text text-anchor="middle" x="123" y="-230.3" font-family="Times New Roman,serif" font-size="14.00">libintl</text>
</g>
<!-- libiconv&#45;&gt;libintl -->
<g id="edge6" class="edge"><title>libiconv&#45;&gt;libintl</title>
<path fill="none" stroke="red" d="M110.3,-288.055C110.478,-280.145 111.48,-270.54 112.991,-261.688"/>
<polygon fill="red" stroke="red" points="116.441,-262.283 114.98,-251.789 109.578,-260.904 116.441,-262.283"/>
</g>
<!-- libiconv&#45;&gt;libxml2 -->
<g id="edge10" class="edge"><title>libiconv&#45;&gt;libxml2</title>
<path fill="none" stroke="black" d="M96.9112,-289.465C86.4715,-279.974 72.9521,-267.684 61.3986,-257.181"/>
<polygon fill="black" stroke="black" points="63.5299,-254.388 53.7761,-250.251 58.8212,-259.568 63.5299,-254.388"/>
</g>
<!-- libintl&#45;&gt;libiconv -->
<g id="edge8" class="edge"><title>libintl&#45;&gt;libiconv</title>
<path fill="none" stroke="blue" stroke-dasharray="1,5" d="M126.692,-252.275C126.496,-260.03 125.522,-269.362 124.061,-278.005"/>
<polygon fill="blue" stroke="blue" points="120.581,-277.563 122.057,-288.055 127.445,-278.933 120.581,-277.563"/>
</g>
<!-- libintl&#45;&gt;glib -->
<g id="edge18" class="edge"><title>libintl&#45;&gt;glib</title>
<path fill="none" stroke="black" d="M136.094,-217.465C143.916,-208.184 153.995,-196.227 162.715,-185.881"/>
<polygon fill="black" stroke="black" points="165.579,-187.913 169.348,-178.011 160.227,-183.402 165.579,-187.913"/>
</g>
<!-- libxml2&#45;&gt;rrdtool -->
<g id="edge48" class="edge"><title>libxml2&#45;&gt;rrdtool</title>
<path fill="none" stroke="black" d="M51.0031,-217.092C76.969,-187.772 134.624,-123.496 186,-72 196.495,-61.4803 208.492,-50.2185 218.763,-40.7933"/>
<polygon fill="black" stroke="black" points="221.197,-43.3107 226.228,-33.9865 216.48,-38.1382 221.197,-43.3107"/>
</g>
<!-- pango -->
<g id="node30" class="node"><title>pango</title>
<ellipse fill="none" stroke="black" cx="243" cy="-90" rx="33.2209" ry="18"/>
<text text-anchor="middle" x="243" y="-86.3" font-family="Times New Roman,serif" font-size="14.00">pango</text>
</g>
<!-- glib&#45;&gt;pango -->
<g id="edge38" class="edge"><title>glib&#45;&gt;pango</title>
<path fill="none" stroke="black" d="M194.937,-146.155C202.963,-136.944 213.451,-124.909 222.581,-114.432"/>
<polygon fill="black" stroke="black" points="225.303,-116.635 229.234,-106.797 220.026,-112.036 225.303,-116.635"/>
</g>
<!-- glib&#45;&gt;rrdtool -->
<g id="edge44" class="edge"><title>glib&#45;&gt;rrdtool</title>
<path fill="none" stroke="black" d="M183.32,-143.861C185.266,-125.374 189.958,-95.4408 201,-72 206.056,-61.2662 213.666,-50.7474 221.025,-41.9466"/>
<polygon fill="black" stroke="black" points="223.684,-44.2223 227.632,-34.3904 218.415,-39.6144 223.684,-44.2223"/>
</g>
<!-- libffi -->
<g id="node15" class="node"><title>libffi</title>
<ellipse fill="none" stroke="black" cx="237" cy="-234" rx="26.949" ry="18"/>
<text text-anchor="middle" x="237" y="-230.3" font-family="Times New Roman,serif" font-size="14.00">libffi</text>
</g>
<!-- libffi&#45;&gt;glib -->
<g id="edge16" class="edge"><title>libffi&#45;&gt;glib</title>
<path fill="none" stroke="black" d="M225.066,-217.811C217.786,-208.546 208.337,-196.52 200.146,-186.094"/>
<polygon fill="black" stroke="black" points="202.841,-183.86 193.911,-178.159 197.337,-188.185 202.841,-183.86"/>
</g>
<!-- libffi&#45;&gt;pango -->
<g id="edge36" class="edge"><title>libffi&#45;&gt;pango</title>
<path fill="none" stroke="black" d="M237.724,-215.871C238.746,-191.67 240.625,-147.211 241.843,-118.393"/>
<polygon fill="black" stroke="black" points="245.348,-118.328 242.274,-108.189 238.355,-118.033 245.348,-118.328"/>
</g>
<!-- expat -->
<g id="node18" class="node"><title>expat</title>
<ellipse fill="none" stroke="black" cx="330" cy="-306" rx="30.3206" ry="18"/>
<text text-anchor="middle" x="330" y="-302.3" font-family="Times New Roman,serif" font-size="14.00">expat</text>
</g>
<!-- expat&#45;&gt;fontconfig -->
<g id="edge20" class="edge"><title>expat&#45;&gt;fontconfig</title>
<path fill="none" stroke="black" d="M330,-287.697C330,-279.983 330,-270.712 330,-262.112"/>
<polygon fill="black" stroke="black" points="333.5,-262.104 330,-252.104 326.5,-262.104 333.5,-262.104"/>
</g>
<!-- fontconfig&#45;&gt;cairo -->
<g id="edge24" class="edge"><title>fontconfig&#45;&gt;cairo</title>
<path fill="none" stroke="black" d="M352.096,-217.983C367.902,-207.242 389.264,-192.723 406.069,-181.303"/>
<polygon fill="black" stroke="black" points="408.084,-184.165 414.388,-175.649 404.149,-178.375 408.084,-184.165"/>
</g>
<!-- cairo&#45;&gt;pango -->
<g id="edge34" class="edge"><title>cairo&#45;&gt;pango</title>
<path fill="none" stroke="black" d="M408.936,-152.134C376.212,-140.078 317.397,-118.41 279.298,-104.373"/>
<polygon fill="black" stroke="black" points="280.207,-100.978 269.614,-100.805 277.787,-107.546 280.207,-100.978"/>
</g>
<!-- cairo&#45;&gt;rrdtool -->
<g id="edge40" class="edge"><title>cairo&#45;&gt;rrdtool</title>
<path fill="none" stroke="black" d="M415.125,-147.641C381.803,-122.737 309.997,-69.0716 270.474,-39.5329"/>
<polygon fill="black" stroke="black" points="272.196,-36.4507 262.091,-33.2677 268.005,-42.0578 272.196,-36.4507"/>
</g>
<!-- pixman -->
<g id="node26" class="node"><title>pixman</title>
<ellipse fill="none" stroke="black" cx="433" cy="-234" rx="37.0701" ry="18"/>
<text text-anchor="middle" x="433" y="-230.3" font-family="Times New Roman,serif" font-size="14.00">pixman</text>
</g>
<!-- pixman&#45;&gt;cairo -->
<g id="edge30" class="edge"><title>pixman&#45;&gt;cairo</title>
<path fill="none" stroke="black" d="M433,-215.697C433,-207.983 433,-198.712 433,-190.112"/>
<polygon fill="black" stroke="black" points="436.5,-190.104 433,-180.104 429.5,-190.104 436.5,-190.104"/>
</g>
<!-- pango&#45;&gt;rrdtool -->
<g id="edge42" class="edge"><title>pango&#45;&gt;rrdtool</title>
<path fill="none" stroke="black" d="M243,-71.6966C243,-63.9827 243,-54.7125 243,-46.1124"/>
<polygon fill="black" stroke="black" points="246.5,-46.1043 243,-36.1043 239.5,-46.1044 246.5,-46.1043"/>
</g>
</g>
</svg>
